<mxfile host="Electron" agent="Mozilla/5.0 (Windows NT 10.0; Win64; x64) AppleWebKit/537.36 (KHTML, like Gecko) draw.io/25.0.2 Chrome/128.0.6613.186 Electron/32.2.5 Safari/537.36" version="25.0.2">
  <diagram name="Halaman-1" id="py47yb5K1ctV8LFWKMoF">
    <mxGraphModel dx="1290" dy="1838" grid="1" gridSize="10" guides="1" tooltips="1" connect="1" arrows="1" fold="1" page="1" pageScale="1" pageWidth="827" pageHeight="1169" math="0" shadow="0">
      <root>
        <mxCell id="0" />
        <mxCell id="1" parent="0" />
        <mxCell id="364cINkvTQYXf3uONWge-17" value="" style="edgeStyle=orthogonalEdgeStyle;rounded=0;orthogonalLoop=1;jettySize=auto;html=1;" edge="1" parent="1" source="3T062UkMHyw783gKNGaz-1">
          <mxGeometry relative="1" as="geometry">
            <mxPoint x="440" as="targetPoint" />
          </mxGeometry>
        </mxCell>
        <mxCell id="3T062UkMHyw783gKNGaz-1" value="start" style="ellipse;whiteSpace=wrap;html=1;" parent="1" vertex="1">
          <mxGeometry x="350" y="-200" width="180" height="120" as="geometry" />
        </mxCell>
        <mxCell id="364cINkvTQYXf3uONWge-3" value="" style="edgeStyle=orthogonalEdgeStyle;rounded=0;orthogonalLoop=1;jettySize=auto;html=1;entryX=0.5;entryY=0;entryDx=0;entryDy=0;" edge="1" parent="1" source="364cINkvTQYXf3uONWge-1" target="364cINkvTQYXf3uONWge-2">
          <mxGeometry relative="1" as="geometry">
            <mxPoint x="430" y="250" as="targetPoint" />
          </mxGeometry>
        </mxCell>
        <mxCell id="364cINkvTQYXf3uONWge-1" value="membaca dataset gunpla" style="rounded=0;whiteSpace=wrap;html=1;" vertex="1" parent="1">
          <mxGeometry x="355" width="170" height="120" as="geometry" />
        </mxCell>
        <mxCell id="364cINkvTQYXf3uONWge-5" value="" style="edgeStyle=orthogonalEdgeStyle;rounded=0;orthogonalLoop=1;jettySize=auto;html=1;" edge="1" parent="1" source="364cINkvTQYXf3uONWge-2" target="364cINkvTQYXf3uONWge-4">
          <mxGeometry relative="1" as="geometry" />
        </mxCell>
        <mxCell id="364cINkvTQYXf3uONWge-2" value="deskripsi data" style="rounded=0;whiteSpace=wrap;html=1;" vertex="1" parent="1">
          <mxGeometry x="350" y="200" width="180" height="120" as="geometry" />
        </mxCell>
        <mxCell id="364cINkvTQYXf3uONWge-7" value="" style="edgeStyle=orthogonalEdgeStyle;rounded=0;orthogonalLoop=1;jettySize=auto;html=1;" edge="1" parent="1" source="364cINkvTQYXf3uONWge-4" target="364cINkvTQYXf3uONWge-6">
          <mxGeometry relative="1" as="geometry" />
        </mxCell>
        <mxCell id="364cINkvTQYXf3uONWge-4" value="10 daat pertama" style="rounded=0;whiteSpace=wrap;html=1;" vertex="1" parent="1">
          <mxGeometry x="350" y="400" width="180" height="120" as="geometry" />
        </mxCell>
        <mxCell id="364cINkvTQYXf3uONWge-9" value="" style="edgeStyle=orthogonalEdgeStyle;rounded=0;orthogonalLoop=1;jettySize=auto;html=1;" edge="1" parent="1" source="364cINkvTQYXf3uONWge-6" target="364cINkvTQYXf3uONWge-8">
          <mxGeometry relative="1" as="geometry" />
        </mxCell>
        <mxCell id="364cINkvTQYXf3uONWge-6" value="pengurutan berdasarkan tnaggal rilis" style="rounded=0;whiteSpace=wrap;html=1;" vertex="1" parent="1">
          <mxGeometry x="350" y="600" width="180" height="120" as="geometry" />
        </mxCell>
        <mxCell id="364cINkvTQYXf3uONWge-11" value="" style="edgeStyle=orthogonalEdgeStyle;rounded=0;orthogonalLoop=1;jettySize=auto;html=1;" edge="1" parent="1" source="364cINkvTQYXf3uONWge-8" target="364cINkvTQYXf3uONWge-10">
          <mxGeometry relative="1" as="geometry" />
        </mxCell>
        <mxCell id="364cINkvTQYXf3uONWge-8" value="hitung data kosong" style="rounded=0;whiteSpace=wrap;html=1;" vertex="1" parent="1">
          <mxGeometry x="355" y="800" width="170" height="120" as="geometry" />
        </mxCell>
        <mxCell id="364cINkvTQYXf3uONWge-13" value="" style="edgeStyle=orthogonalEdgeStyle;rounded=0;orthogonalLoop=1;jettySize=auto;html=1;" edge="1" parent="1" source="364cINkvTQYXf3uONWge-10" target="364cINkvTQYXf3uONWge-12">
          <mxGeometry relative="1" as="geometry" />
        </mxCell>
        <mxCell id="364cINkvTQYXf3uONWge-10" value="visualisasi 1 (histogram)" style="rounded=0;whiteSpace=wrap;html=1;" vertex="1" parent="1">
          <mxGeometry x="355" y="1000" width="170" height="120" as="geometry" />
        </mxCell>
        <mxCell id="364cINkvTQYXf3uONWge-15" value="" style="edgeStyle=orthogonalEdgeStyle;rounded=0;orthogonalLoop=1;jettySize=auto;html=1;" edge="1" parent="1" source="364cINkvTQYXf3uONWge-12" target="364cINkvTQYXf3uONWge-14">
          <mxGeometry relative="1" as="geometry" />
        </mxCell>
        <mxCell id="364cINkvTQYXf3uONWge-12" value="visualisasi 2 (pie chart)" style="rounded=0;whiteSpace=wrap;html=1;" vertex="1" parent="1">
          <mxGeometry x="355" y="1200" width="170" height="120" as="geometry" />
        </mxCell>
        <mxCell id="364cINkvTQYXf3uONWge-14" value="end" style="ellipse;whiteSpace=wrap;html=1;" vertex="1" parent="1">
          <mxGeometry x="355" y="1400" width="170" height="120" as="geometry" />
        </mxCell>
      </root>
    </mxGraphModel>
  </diagram>
</mxfile>
